<?xml version="1.0" encoding="UTF-8"?>
<svg version="1.1" xmlns="http://www.w3.org/2000/svg" width="321" height="157">
<path d="M0 0 C105.93 0 211.86 0 321 0 C321 51.81 321 103.62 321 157 C215.07 157 109.14 157 0 157 C0 105.19 0 53.38 0 0 Z " fill="#FDFDFD" transform="translate(0,0)"/>
<path d="M0 0 C8.85306157 6.33942445 15.23524616 15.3904768 17.25 26.25 C18.33789803 39.04057253 16.27057729 50.37789293 7.83203125 60.546875 C0.52016215 68.41841803 -8.58771492 73.75356682 -19.51171875 74.41796875 C-33.06684369 74.5084569 -42.7925587 71.93977533 -53 62.625 C-62.20120049 52.9572072 -64.15934953 42.20976068 -63.9609375 29.45703125 C-63.56957463 18.49162347 -57.68008039 9.37375165 -49.87890625 1.88671875 C-34.75371669 -9.741638 -15.92923493 -9.79848737 0 0 Z " fill="#F9F9F9" transform="translate(102.75,44.75)"/>
<path d="M0 0 C14.19 0 28.38 0 43 0 C43.061875 5.094375 43.12375 10.18875 43.1875 15.4375 C43.22846802 17.82053345 43.22846802 17.82053345 43.27026367 20.25170898 C43.36861632 37.01290333 43.36861632 37.01290333 37.80859375 43.59375 C37.02613281 44.2228125 36.24367187 44.851875 35.4375 45.5 C34.65246094 46.1496875 33.86742187 46.799375 33.05859375 47.46875 C27.57094653 51.55064319 20.52462602 50.69481312 14 50 C7.99475145 47.62257968 3.9563865 43.66640745 1 38 C-0.33942452 34.14699817 -0.12652538 30.19900457 -0.09765625 26.171875 C-0.09664917 25.50752441 -0.09564209 24.84317383 -0.09460449 24.15869141 C-0.08939262 21.68910992 -0.07543139 19.21955313 -0.0625 16.75 C-0.041875 11.2225 -0.02125 5.695 0 0 Z " fill="#040404" transform="translate(58,57)"/>
<path d="M0 0 C17 0 17 0 22 3 C26.45721968 11.14595321 26.30290451 21.34299071 23.875 30.1875 C23.2421875 32.23046875 23.2421875 32.23046875 22 34 C16 37 16 37 0 37 C0 24.79 0 12.58 0 0 Z " fill="#030303" transform="translate(134,47)"/>
<path d="M0 0 C3.3 0 6.6 0 10 0 C11.1492567 2.74861395 12.29451341 5.49877984 13.4375 8.25 C13.76298828 9.02730469 14.08847656 9.80460937 14.42382812 10.60546875 C14.89272461 11.73662109 14.89272461 11.73662109 15.37109375 12.890625 C15.65911865 13.58188477 15.94714355 14.27314453 16.24389648 14.98535156 C17 17 17 17 18 21 C18.33 14.07 18.66 7.14 19 0 C20.98 0 22.96 0 25 0 C25 12.21 25 24.42 25 37 C22.36 37 19.72 37 17 37 C13.39924612 30.198576 10.70231456 23.20617215 8 16 C7.67 22.93 7.34 29.86 7 37 C4.69 37 2.38 37 0 37 C0 24.79 0 12.58 0 0 Z " fill="#060606" transform="translate(259,47)"/>
<path d="M0 0 C1.37478516 0.01740234 1.37478516 0.01740234 2.77734375 0.03515625 C3.69644531 0.04417969 4.61554688 0.05320313 5.5625 0.0625 C6.27277344 0.07410156 6.98304688 0.08570313 7.71484375 0.09765625 C9.14063161 5.20584462 10.56475274 10.31449351 11.98730469 15.42358398 C12.4718679 17.1629708 12.95689309 18.90222898 13.44238281 20.64135742 C14.1385746 23.13557104 14.83312464 25.63023671 15.52734375 28.125 C15.85545044 29.29844215 15.85545044 29.29844215 16.19018555 30.49559021 C17.71484375 35.98378454 17.71484375 35.98378454 17.71484375 37.09765625 C14.74484375 37.09765625 11.77484375 37.09765625 8.71484375 37.09765625 C8.38484375 34.45765625 8.05484375 31.81765625 7.71484375 29.09765625 C4.08484375 29.42765625 0.45484375 29.75765625 -3.28515625 30.09765625 C-3.94515625 32.40765625 -4.60515625 34.71765625 -5.28515625 37.09765625 C-7.92515625 37.09765625 -10.56515625 37.09765625 -13.28515625 37.09765625 C-11.88356802 31.98783351 -10.47764419 26.87923177 -9.06762695 21.77172852 C-8.58823154 20.03280254 -8.11003826 18.2935447 -7.63305664 16.55395508 C-6.94860983 14.05853167 -6.25989722 11.56432027 -5.5703125 9.0703125 C-5.35673599 8.28801773 -5.14315948 7.50572296 -4.92311096 6.69972229 C-3.09936619 0.13245155 -3.09936619 0.13245155 0 0 Z " fill="#0A0A0A" transform="translate(198.28515625,46.90234375)"/>
<path d="M0 0 C2.64 0 5.28 0 8 0 C8.33 4.62 8.66 9.24 9 14 C11.64 9.38 14.28 4.76 17 0 C19.64 0 22.28 0 25 0 C23.22319634 5.01312462 20.36125333 8.89968289 17.265625 13.18359375 C15.69790314 15.94804408 15.69790314 15.94804408 16.5703125 18.92578125 C18.13173862 22.28327402 19.81587954 25.51889598 21.625 28.75 C25 34.78367347 25 34.78367347 25 37 C22.03 37 19.06 37 16 37 C13.69 32.05 11.38 27.1 9 22 C8.67 26.95 8.34 31.9 8 37 C5.36 37 2.72 37 0 37 C0 24.79 0 12.58 0 0 Z " fill="#090909" transform="translate(218,47)"/>
<path d="M0 0 C6.6 0 13.2 0 20 0 C20 1.98 20 3.96 20 6 C16.04 6 12.08 6 8 6 C8 8.64 8 11.28 8 14 C11.63 14 15.26 14 19 14 C19 16.31 19 18.62 19 21 C15.37 21 11.74 21 8 21 C8 24.3 8 27.6 8 31 C11.96 31 15.92 31 20 31 C20 32.98 20 34.96 20 37 C13.4 37 6.8 37 0 37 C0 24.79 0 12.58 0 0 Z " fill="#040404" transform="translate(163,47)"/>
<path d="M0 0 C9.10169935 6.55023937 14.61362319 15.05352766 17.7578125 25.83984375 C19.95878093 39.48584803 17.29074804 50.37752626 9.3828125 61.71484375 C2.85028442 70.08771845 -7.13923907 75.87660718 -17.6171875 77.71484375 C-31.37656674 78.71321559 -41.55235207 75.36022855 -52.7421875 67.52734375 C-60.99682794 60.23842726 -66.13419259 50.01519312 -66.85546875 39.11328125 C-67.24110225 25.23563992 -63.94238781 15.36735359 -54.6171875 4.71484375 C-39.18843286 -9.69728752 -17.64713209 -11.31297339 0 0 Z M-57.85546875 11.41015625 C-65.20940907 21.03061032 -65.62916703 32.00400707 -64.6171875 43.71484375 C-62.21163695 55.24774037 -54.89501889 63.79864217 -45.6171875 70.71484375 C-36.37640058 76.08595441 -25.42828841 77.07630595 -14.97265625 75.25390625 C-4.51736441 72.45485174 4.25935265 66.6959182 10.3828125 57.71484375 C15.73862409 47.00322057 18.30894124 36.49799079 15.69921875 24.59765625 C12.04505976 13.89294153 5.67638904 4.61958791 -4.43359375 -0.79296875 C-24.59823022 -10.19060226 -43.513557 -5.32677024 -57.85546875 11.41015625 Z " fill="#2F2F2F" transform="translate(103.6171875,43.28515625)"/>
<path d="M0 0 C2.31 0 4.62 0 7 0 C7 12.21 7 24.42 7 37 C4.69 37 2.38 37 0 37 C0 24.79 0 12.58 0 0 Z " fill="#000000" transform="translate(247,47)"/>
<path d="M0 0 C6 0 6 0 8.3515625 1.5 C10.62177839 4.94298145 10.51196859 8.02070189 10.375 12 C10.37371094 12.7115625 10.37242187 13.423125 10.37109375 14.15625 C10.30870256 17.87199201 10.17895919 20.90927775 8 24 C6 25 6 25 0 25 C0 16.75 0 8.5 0 0 Z " fill="#F2F2F2" transform="translate(141,53)"/>
<path d="M0 0 C10 0 10 0 14 2 C14 4.97 14 7.94 14 11 C13.01 11.33 12.02 11.66 11 12 C11.495 12.94875 11.99 13.8975 12.5 14.875 C14 18 14 18 14 20 C12.1875 19.8125 12.1875 19.8125 10 19 C8.96986723 17.35178756 7.96885372 15.68496298 7 14 C6.01 13.67 5.02 13.34 4 13 C4 15.31 4 17.62 4 20 C2.68 20.33 1.36 20.66 0 21 C0 14.07 0 7.14 0 0 Z " fill="#131313" transform="translate(212,91)"/>
<path d="M0 0 C5.04574923 1.26143731 5.53470277 2.76327939 8.25 7.0625 C8.95640625 8.16722656 9.6628125 9.27195312 10.390625 10.41015625 C10.92171875 11.26480469 11.4528125 12.11945313 12 13 C12.33 8.71 12.66 4.42 13 0 C13.99 0 14.98 0 16 0 C16 6.93 16 13.86 16 21 C12 20 12 20 10.078125 17.49609375 C9.47484375 16.48675781 8.8715625 15.47742188 8.25 14.4375 C7.32960937 12.91962891 7.32960937 12.91962891 6.390625 11.37109375 C5.93171875 10.58863281 5.4728125 9.80617188 5 9 C4.67 12.63 4.34 16.26 4 20 C2.68 20.33 1.36 20.66 0 21 C0 14.07 0 7.14 0 0 Z " fill="#0F0F0F" transform="translate(152,91)"/>
<path d="M0 0 C0.99 0 1.98 0 3 0 C3.33 5.28 3.66 10.56 4 16 C5.65 16.33 7.3 16.66 9 17 C11.05922402 14.94077598 10.41427579 10.78291876 10.5625 7.9375 C10.60568359 7.17888672 10.64886719 6.42027344 10.69335938 5.63867188 C10.79973633 3.75934562 10.90039934 1.87969756 11 0 C12.32 0 13.64 0 15 0 C15.13517903 2.75164432 15.23415251 5.49664521 15.3125 8.25 C15.3753418 9.41595703 15.3753418 9.41595703 15.43945312 10.60546875 C15.56287283 16.38151111 15.56287283 16.38151111 12.70703125 19.51953125 C9.20706561 21.43365387 6.9323379 21.5097475 3 21 C0.91743866 19.44611427 0.10105548 18.59133755 -0.34057617 16.00708008 C-0.32486572 15.26868896 -0.30915527 14.53029785 -0.29296875 13.76953125 C-0.28330078 12.96708984 -0.27363281 12.16464844 -0.26367188 11.33789062 C-0.23853516 10.50451172 -0.21339844 9.67113281 -0.1875 8.8125 C-0.17396484 7.96751953 -0.16042969 7.12253906 -0.14648438 6.25195312 C-0.11115799 4.16769616 -0.05735139 2.08376723 0 0 Z " fill="#1B1B1B" transform="translate(134,91)"/>
<path d="M0 0 C8.23194747 3.63862886 11.88456354 11.15868206 15.0546875 19.16796875 C18.38254987 29.13780437 18.05942215 40.45741302 13.58984375 50.015625 C7.53479144 60.99471757 0.12231975 68.86109369 -12 73 C-14.17089844 72.55834961 -14.17089844 72.55834961 -16 72 C-14.9378125 71.52691406 -13.875625 71.05382812 -12.78125 70.56640625 C-0.12246532 64.73010642 6.98425628 58.99723944 12.08984375 45.6015625 C15.41706863 36.09112571 15.18885661 25.83036043 11.2734375 16.5 C8.21654711 10.49874279 4.32200594 5.15316093 0 0 Z " fill="#2A2A2A" transform="translate(105,46)"/>
<path d="M0 0 C3.96 0 7.92 0 12 0 C12.33 0.99 12.66 1.98 13 3 C9.7 3 6.4 3 3 3 C3 4.98 3 6.96 3 9 C5.64 9 8.28 9 11 9 C11 9.99 11 10.98 11 12 C8.36 12 5.72 12 3 12 C3 13.65 3 15.3 3 17 C5.97 17 8.94 17 12 17 C12.33 17.99 12.66 18.98 13 20 C8.71 20 4.42 20 0 20 C0 13.4 0 6.8 0 0 Z " fill="#141414" transform="translate(196,91)"/>
<path d="M0 0 C1.32 0 2.64 0 4 0 C5.32 3.96 6.64 7.92 8 12 C9.71767682 8.01811282 11.41037341 4.03520597 13 0 C13.99 0 14.98 0 16 0 C15.42381249 5.14595054 14.25256722 9.55078055 12.4375 14.4375 C11.98246094 15.67371094 11.52742187 16.90992188 11.05859375 18.18359375 C10.70925781 19.11300781 10.35992187 20.04242188 10 21 C8.10644531 20.74780273 8.10644531 20.74780273 6 20 C4.99511719 18.26586914 4.99511719 18.26586914 4.296875 16.03515625 C4.0390625 15.23529297 3.78125 14.43542969 3.515625 13.61132812 C3.26296875 12.77021484 3.0103125 11.92910156 2.75 11.0625 C2.481875 10.22525391 2.21375 9.38800781 1.9375 8.52539062 C0 2.38173629 0 2.38173629 0 0 Z " fill="#181818" transform="translate(177,91)"/>
<path d="M0 0 C1.8871875 0.061875 1.8871875 0.061875 3.8125 0.125 C3.8125 1.115 3.8125 2.105 3.8125 3.125 C1.5025 3.455 -0.8075 3.785 -3.1875 4.125 C-2.07909471 7.04715941 -1.44188636 7.9885 1.375 9.5 C3.8125 11.125 3.8125 11.125 4.875 14.0625 C4.8125 17.125 4.8125 17.125 3.375 19.5 C-0.30872583 21.83602126 -2.87373202 21.41258453 -7.1875 21.125 C-7.5175 20.135 -7.8475 19.145 -8.1875 18.125 C-4.2275 17.63 -4.2275 17.63 -0.1875 17.125 C0.1425 15.805 0.4725 14.485 0.8125 13.125 C0.049375 12.856875 -0.71375 12.58875 -1.5 12.3125 C-5.5647242 10.51645907 -5.5647242 10.51645907 -7.1875 8.125 C-7.5625 5.0625 -7.5625 5.0625 -7.1875 2.125 C-4.09861478 0.06574319 -3.47814073 -0.1140374 0 0 Z " fill="#141414" transform="translate(237.1875,90.875)"/>
<path d="M0 0 C2.91803181 3.47983678 5.25413937 6.98664053 7.453125 10.95703125 C8.071875 12.06884766 8.690625 13.18066406 9.328125 14.32617188 C9.96234375 15.47666016 10.5965625 16.62714844 11.25 17.8125 C11.90582426 18.99437697 12.56207039 20.17601994 13.21875 21.35742188 C14.81665988 24.23600952 16.41024584 27.11690267 18 30 C16.68 30.33 15.36 30.66 14 31 C8.51134038 21.74737815 3.04874148 12.50230612 -2 3 C-1.34 2.01 -0.68 1.02 0 0 Z " fill="#ECECEC" transform="translate(79,60)"/>
<path d="M0 0 C4.95 0 9.9 0 15 0 C15 0.99 15 1.98 15 3 C13.02 3 11.04 3 9 3 C9 8.94 9 14.88 9 21 C7.68 20.67 6.36 20.34 5 20 C5 14.39 5 8.78 5 3 C3.35 3 1.7 3 0 3 C0 2.01 0 1.02 0 0 Z " fill="#292929" transform="translate(252,91)"/>
<path d="M0 0 C1.8125 0.125 1.8125 0.125 4 1 C7 6.03571429 7 6.03571429 7 9 C7.66 9 8.32 9 9 9 C9.12375 8.2575 9.2475 7.515 9.375 6.75 C9.95486701 4.19858515 10.73708739 2.2732427 12 0 C12.99 0 13.98 0 15 0 C14.58940034 3.38744718 13.81796118 5.29581308 12 8.25 C9.52187771 12.31735288 9.21247384 16.31495175 9 21 C8.01 21 7.02 21 6 21 C5.938125 19.72125 5.87625 18.4425 5.8125 17.125 C5.29218789 12.15050092 3.45682194 8.40767484 1.05859375 4.06640625 C0 2 0 2 0 0 Z " fill="#131313" transform="translate(269,91)"/>
<path d="M0 0 C2.43047521 2.23881844 4.04424529 4.52516288 5.69921875 7.37890625 C6.18583984 8.21744141 6.67246094 9.05597656 7.17382812 9.91992188 C7.67333984 10.79197266 8.17285156 11.66402344 8.6875 12.5625 C9.19861328 13.43841797 9.70972656 14.31433594 10.23632812 15.21679688 C14 21.74417974 14 21.74417974 14 24 C12.68 24 11.36 24 10 24 C8.52026367 22.33520508 8.52026367 22.33520508 7.16796875 20.01953125 C6.68005859 19.18486328 6.19214844 18.35019531 5.68945312 17.49023438 C5.19380859 16.60658203 4.69816406 15.72292969 4.1875 14.8125 C3.67251953 13.94818359 3.15753906 13.08386719 2.62695312 12.19335938 C-1.09116272 5.69785579 -1.09116272 5.69785579 -0.63549805 2.2097168 C-0.42578369 1.48051025 -0.21606934 0.75130371 0 0 Z " fill="#EBEBEB" transform="translate(75,67)"/>
<path d="M0 0 C1.32 0 2.64 0 4 0 C4 6.93 4 13.86 4 21 C2.68 20.67 1.36 20.34 0 20 C0 13.4 0 6.8 0 0 Z " fill="#252525" transform="translate(245,91)"/>
<path d="M0 0 C1.32 0 2.64 0 4 0 C4 6.93 4 13.86 4 21 C2.68 20.67 1.36 20.34 0 20 C0 13.4 0 6.8 0 0 Z " fill="#272727" transform="translate(171,91)"/>
<path d="M0 0 C3.28834617 2.79042625 5.12735689 6.47328176 7.1875 10.1875 C7.55552734 10.84169922 7.92355469 11.49589844 8.30273438 12.16992188 C9.2062466 13.77746961 10.1037241 15.38840651 11 17 C9.68 17.33 8.36 17.66 7 18 C5.62701756 15.94803718 4.27730838 13.88595971 2.9375 11.8125 C2.35258789 10.9452832 2.35258789 10.9452832 1.75585938 10.06054688 C-0.07909863 7.18632062 -1.04562293 5.52571655 -0.74609375 2.07421875 C-0.49988281 1.38972656 -0.25367187 0.70523438 0 0 Z " fill="#EAEAEA" transform="translate(71,73)"/>
<path d="M0 0 C0.99 0.33 1.98 0.66 3 1 C2.20335937 1.8353125 2.20335937 1.8353125 1.390625 2.6875 C0.68421875 3.450625 -0.0221875 4.21375 -0.75 5 C-1.44609375 5.7425 -2.1421875 6.485 -2.859375 7.25 C-7.82960607 13.63511437 -9.62459128 19.49998011 -10.25 27.5 C-10.32734375 28.32242188 -10.4046875 29.14484375 -10.484375 29.9921875 C-10.67054485 31.99351337 -10.83733295 33.99662687 -11 36 C-11.33 36 -11.66 36 -12 36 C-13.79755936 23.71016479 -12.04230348 15.96551708 -4.8125 5.875 C-1.38323353 1.38323353 -1.38323353 1.38323353 0 0 Z " fill="#434343" transform="translate(50,47)"/>
<path d="M0 0 C2.62451617 2.62451617 2.5832868 4.4877828 3.125 8.125 C3.29257813 9.22070312 3.46015625 10.31640625 3.6328125 11.4453125 C3.75398437 12.28835937 3.87515625 13.13140625 4 14 C1.69 14 -0.62 14 -3 14 C-2.48594831 9.03083364 -1.76615118 4.70973649 0 0 Z " fill="#E0E0E0" transform="translate(200,55)"/>
<path d="M0 0 C2.33294775 -0.04241723 4.66702567 -0.04092937 7 0 C8 1 8 1 8.125 3.5 C8 6 8 6 7 7 C4.66702567 7.04092937 2.33294775 7.04241723 0 7 C0 4.69 0 2.38 0 0 Z " fill="#D9D9D9" transform="translate(215,94)"/>
<path d="M0 0 C0.99 0 1.98 0 3 0 C2.39891424 5.65020618 0.92471317 10.66164461 -1 16 C-1.99 15.67 -2.98 15.34 -4 15 C-3.43179252 9.54520815 -2.05362055 5.08940744 0 0 Z " fill="#232323" transform="translate(190,91)"/>
<path d="M0 0 C0.78552246 0.01047363 1.57104492 0.02094727 2.38037109 0.03173828 C3.23115234 0.03818359 4.08193359 0.04462891 4.95849609 0.05126953 C6.29267578 0.07640625 6.29267578 0.07640625 7.65380859 0.10205078 C8.99958984 0.11558594 8.99958984 0.11558594 10.37255859 0.12939453 C12.59157445 0.15300108 14.81005937 0.18592768 17.02880859 0.22705078 C17.35880859 0.88705078 17.68880859 1.54705078 18.02880859 2.22705078 C14.51702075 3.30892185 11.25328294 3.36051777 7.59130859 3.35205078 C6.47884766 3.35462891 5.36638672 3.35720703 4.22021484 3.35986328 C1.36503367 3.24104301 -1.19627087 2.88058347 -3.97119141 2.22705078 C-1.97119141 0.22705078 -1.97119141 0.22705078 0 0 Z " fill="#4D4D4D" transform="translate(71.97119140625,117.77294921875)"/>
<path d="M0 0 C0.66 0 1.32 0 2 0 C2.83848804 1.45537568 3.67063934 2.91440373 4.5 4.375 C5.19609375 5.59316406 5.19609375 5.59316406 5.90625 6.8359375 C7 9 7 9 7 11 C4.6875 10.8125 4.6875 10.8125 2 10 C0.125 7.75 0.125 7.75 -1 5 C-0.6875 2.1875 -0.6875 2.1875 0 0 Z " fill="#E6E6E6" transform="translate(67,80)"/>
<path d="M0 0 C2.31 1.98 4.62 3.96 7 6 C6.34 6.66 5.68 7.32 5 8 C0 2.25 0 2.25 0 0 Z " fill="#3A3A3A" transform="translate(46,103)"/>
</svg>
